<?xml version="1.0" encoding="utf-8"?>
<svg id="master-artboard" viewBox="0 0 1400 980" version="1.1" xmlns="http://www.w3.org/2000/svg" x="0px" y="0px" style="enable-background:new 0 0 336 235.2;" width="80px" height="50px"><g transform="matrix(23.902440513052593, 0, 0, 23.902440513052593, 389.2682778705625, 0.000004540246209217003)"><g>
	<path class="st0" d="M10.9,36.1V24h1.3v11H16v1.1H10.9z" style="fill: rgb(215, 181, 109);"/>
</g><g id="Слой_2_2_">
	<g id="Слой_1-2_2_">
		<path class="st0" d="M26,7c-0.2-1.3-1.7-2.2-3.3-2c-1.4,0.1-2.7,0.3-4.1,0.5c-1.2,0,3.5-3.6-2.4-5C15,0.2,13.8,0,12.6,0&#10;&#9;&#9;&#9;C8.9,0,9.2,2.4,6.9,3.4c-0.5,0.2-1,0.3-1.6,0.3c-1.6,0-3.2-0.9-4.2-0.9C0.7,2.8,0.3,3,0.1,3.4c-0.5,0.8,0.6,4,2,7.4H1.8v28.7&#10;&#9;&#9;&#9;c0,0.8,0.8,1.6,1.8,1.6c0,0,0.1,0,0.1,0h18.9c1,0,1.9-0.7,1.9-1.5V10.9C25.5,9.8,26,8.4,26,7 M10.5,12.6l2.1-6.4l5.5,1.2l-1.7,5.1&#10;&#9;&#9;&#9;l-3.2,0.9L10.5,12.6 M4.7,11.2C5,9.9,6.4,9,8,9.2c0.4,0,0.7,0.2,1.1,0.3c0.2,0.1,0.3,0.2,0.4,0.3l-0.8,2.3&#10;&#9;&#9;&#9;C7.2,11.7,5.9,11.4,4.7,11.2 M19,10.4l1.6-0.4l0,0l0.4,1.3l-2.5,0.6L19,10.4z M22.7,6.5c0.4,0,0.7,0,1.1,0.2c0,0,0.3,0.1,0.4,0.6&#10;&#9;&#9;&#9;c0,0.1,0.1,0.9-1.4,3.1l-0.2-0.7c-0.3-0.8-1.3-1.3-2.3-1.1c0,0,0,0,0,0l-0.6,0.1l0.3-1c0.1-0.3,0.1-0.6,0-0.8h0.2&#10;&#9;&#9;&#9;C21,6.7,21.8,6.6,22.7,6.5 M2.2,4.6c1,0.4,2.1,0.6,3.2,0.6C6.2,5.2,7,5,7.8,4.7c1.1-0.5,2-1.2,2.6-2.1c0.2-0.3,0.5-0.6,0.8-0.9&#10;&#9;&#9;&#9;c0.4-0.2,0.9-0.3,1.3-0.3c1.1,0,2.2,0.2,3.2,0.5c1,0.2,1.5,0.5,1.6,0.7s-0.2,1-0.4,1.4c-0.1,0.2-0.2,0.4-0.3,0.6&#10;&#9;&#9;&#9;c-0.1,0.2-0.1,0.4-0.1,0.7l-3.4-0.7c-0.2,0-0.3,0-0.5,0c-0.9,0-1.6,0.5-1.8,1.1L10,8.2c-2.2-1-4.9-0.6-6.4,1.1&#10;&#9;&#9;&#9;C2.9,7.8,2.4,6.2,2,4.6L2.2,4.6 M22.7,39.5h-19V12.5c1.7,0.3,4.8,1.1,10.2,2.7c3.6,1.1,7,2.1,8.7,2.7L22.7,39.5z M16,14.2&#10;&#9;&#9;&#9;c3.3-0.9,5.4-1.4,6.7-1.7v3.7C21.1,15.7,18.6,14.9,16,14.2" style="fill: rgb(215, 181, 109);"/>
	</g>
</g></g></svg>