<?xml version="1.0" encoding="utf-8"?>
<svg id="master-artboard" viewBox="0 0 1400 980" version="1.1" xmlns="http://www.w3.org/2000/svg" x="0px" y="0px" style="enable-background:new 0 0 336 235.2;" width="80px" height="50px"><g transform="matrix(33.793105552936424, 0, 0, 33.793105552936424, 424.5862071748611, 0.000004540246209217003)"><g id="Слой_2">
	<g id="Слой_1-2">
		<path class="st0" d="M16.2,5c-0.1-0.9-1-1.6-2-1.4c-0.8,0.1-1.7,0.2-2.5,0.4c-0.7,0,2.1-2.6-1.5-3.5C9.4,0.1,8.7,0,7.9,0&#10;&#9;&#9;&#9;C5.6,0,5.9,1.7,4.4,2.4c-0.3,0.1-0.6,0.2-1,0.2c-1,0-2-0.6-2.6-0.6C0.6,2,0.3,2.1,0.2,2.4c-0.3,0.6,0.4,2.8,1.2,5.2H1.3v20.3&#10;&#9;&#9;&#9;c0,0.6,0.5,1.1,1.1,1.1c0,0,0,0,0.1,0h11.7c0.6,0,1.2-0.5,1.2-1.1V7.7C15.9,6.9,16.2,6,16.2,5 M6.6,8.9l1.3-4.6l3.4,0.8l-1,3.6&#10;&#9;&#9;&#9;l-2,0.6L6.6,8.9 M3.1,7.9c0.1-0.9,1-1.5,2-1.4c0.2,0,0.4,0.1,0.6,0.2C5.8,6.8,5.9,6.9,6,6.9L5.5,8.6C4.6,8.3,3.8,8.1,3.1,7.9&#10;&#9;&#9;&#9; M11.9,7.4l1-0.3l0,0L13.1,8l-1.6,0.4L11.9,7.4z M14.1,4.6c0.2,0,0.5,0,0.7,0.1c0,0,0.2,0.1,0.2,0.4c0,0.1,0.1,0.6-0.8,2.2L14,6.8&#10;&#9;&#9;&#9;c-0.2-0.6-0.8-0.9-1.4-0.8c0,0,0,0,0,0l-0.4,0.1l0.2-0.7c0.1-0.2,0.1-0.4,0-0.6h0.1C13.1,4.7,13.6,4.7,14.1,4.6 M1.5,3.2&#10;&#9;&#9;&#9;c0.6,0.3,1.3,0.4,2,0.4c0.5,0,1-0.1,1.5-0.3C5.6,3,6.2,2.5,6.6,1.9c0.1-0.2,0.3-0.4,0.5-0.6c0.2-0.1,0.5-0.2,0.8-0.2&#10;&#9;&#9;&#9;c0.7,0,1.3,0.1,2,0.3c0.6,0.2,0.9,0.4,1,0.5s-0.1,0.7-0.2,1c-0.1,0.2-0.1,0.3-0.2,0.4c0,0.2-0.1,0.3-0.1,0.5L8.2,3.3&#10;&#9;&#9;&#9;c-0.1,0-0.2,0-0.3,0c-0.5,0-1,0.3-1.1,0.8L6.3,5.8C5,5.1,3.3,5.4,2.4,6.6C2,5.5,1.7,4.4,1.4,3.2L1.5,3.2 M14.1,27.9H2.5V8.9&#10;&#9;&#9;&#9;c1,0.2,2.9,0.8,6.3,1.9c2.2,0.7,4.3,1.5,5.4,1.9L14.1,27.9z M10,10c2-0.7,3.3-1,4.1-1.2v2.6C13.1,11.1,11.6,10.5,10,10" style="fill: rgb(215, 181, 109);"/>
	</g>
</g><g>
	<path class="st0" d="M7.5,23.7c-1.7,0-2.7-1-2.8-2.9H6c0.1,1.3,0.6,1.7,1.6,1.7c1.2,0,1.7-0.6,1.7-2.1c0-0.9-0.1-1.3-0.4-1.7&#10;&#9;&#9;c-0.2-0.3-0.5-0.4-1-0.6l-0.6-0.2c-0.9-0.3-1.3-0.5-1.7-1c-0.4-0.6-0.6-1.3-0.6-2.3c0-2.1,1-3.1,2.7-3.1c1.6,0,2.5,0.7,2.7,2.7H9.1&#10;&#9;&#9;C9,13,8.7,12.5,7.6,12.5c-1,0-1.5,0.6-1.5,1.9c0,0.7,0.1,1.2,0.3,1.5c0.2,0.3,0.5,0.4,1.1,0.6l0.6,0.2c0.8,0.3,1.3,0.5,1.6,1&#10;&#9;&#9;c0.5,0.6,0.7,1.4,0.7,2.6C10.5,22.8,9.4,23.7,7.5,23.7z" style="fill: rgb(215, 181, 109);"/>
</g></g></svg>